<?xml version="1.0" encoding="UTF-8" standalone="no"?>
<!-- Generator: Adobe Illustrator 18.0.0, SVG Export Plug-In . SVG Version: 6.00 Build 0)  -->

<svg
   xmlns:dc="http://purl.org/dc/elements/1.1/"
   xmlns:cc="http://creativecommons.org/ns#"
   xmlns:rdf="http://www.w3.org/1999/02/22-rdf-syntax-ns#"
   xmlns:svg="http://www.w3.org/2000/svg"
   xmlns="http://www.w3.org/2000/svg"
   xmlns:sodipodi="http://sodipodi.sourceforge.net/DTD/sodipodi-0.dtd"
   xmlns:inkscape="http://www.inkscape.org/namespaces/inkscape"
   version="1.1"
   id="Capa_1"
   x="0px"
   y="0px"
   viewBox="0 0 297 297"
   style="enable-background:new 0 0 297 297;"
   xml:space="preserve"
   sodipodi:docname="italian-learners-classes.svg"
   inkscape:version="0.92.4 (5da689c313, 2019-01-14)"><metadata
   id="metadata4098"><rdf:RDF><cc:Work
       rdf:about=""><dc:format>image/svg+xml</dc:format><dc:type
         rdf:resource="http://purl.org/dc/dcmitype/StillImage" /><dc:title></dc:title></cc:Work></rdf:RDF></metadata><defs
   id="defs4096" /><sodipodi:namedview
   pagecolor="#ffffff"
   bordercolor="#666666"
   borderopacity="1"
   objecttolerance="10"
   gridtolerance="10"
   guidetolerance="10"
   inkscape:pageopacity="0"
   inkscape:pageshadow="2"
   inkscape:window-width="2256"
   inkscape:window-height="1376"
   id="namedview4094"
   showgrid="false"
   inkscape:zoom="6.3569023"
   inkscape:cx="322.07617"
   inkscape:cy="237.43378"
   inkscape:window-x="0"
   inkscape:window-y="64"
   inkscape:window-maximized="1"
   inkscape:current-layer="g3840" />
<g
   id="g4061">
	<path
   d="M252.677,0H132.673c-13.796,0-25.02,11.229-25.02,25.031v65.635c0,13.801,11.224,25.029,25.02,25.029h12.403v19.343   c0,4.115,2.479,7.824,6.28,9.398c1.259,0.521,2.579,0.774,3.89,0.774c2.648,0,5.252-1.035,7.198-2.983l26.508-26.531h63.725   c13.796,0,25.021-11.229,25.021-25.029V25.031C277.697,11.229,266.473,0,252.677,0z M257.353,90.666   c0,2.539-2.142,4.685-4.676,4.685h-67.94c-2.699,0-5.288,1.073-7.196,2.982l-12.12,12.132v-4.941   c0-5.618-4.555-10.173-10.172-10.173h-22.575c-2.534,0-4.676-2.146-4.676-4.685V25.031c0-2.541,2.142-4.688,4.676-4.688h120.004   c2.534,0,4.676,2.146,4.676,4.688V90.666z"
   id="path4057" />
	<path
   d="M95.278,218.645c23.484-3.623,41.522-23.983,41.522-48.484c0-27.052-21.991-49.061-49.022-49.061   c-27.033,0-49.027,22.009-49.027,49.061c0,24.499,18.041,44.86,41.526,48.484c-17.315,1.5-32.503,8.223-43.331,19.306   c-11.99,12.274-18.083,29.257-17.619,49.114C19.456,292.59,23.971,297,29.496,297h116.556c5.525,0,10.041-4.411,10.169-9.935   c0.461-19.86-5.634-36.845-17.626-49.118C127.77,226.866,112.587,220.146,95.278,218.645z M59.095,170.161   c0-15.834,12.867-28.716,28.684-28.716c15.813,0,28.679,12.882,28.679,28.716c0,15.833-12.865,28.714-28.679,28.714   C71.962,198.875,59.095,185.994,59.095,170.161z M40.171,276.656c1.317-9.913,5.109-18.122,11.328-24.488   c8.505-8.705,21.388-13.5,36.277-13.5c14.884,0,27.764,4.793,36.267,13.495c6.22,6.366,10.014,14.578,11.332,24.493H40.171z"
   id="path4059" />
</g>
<g
   id="g4063">
</g>
<g
   id="g4065">
</g>
<g
   id="g4067">
</g>
<g
   id="g4069">
</g>
<g
   id="g4071">
</g>
<g
   id="g4073">
</g>
<g
   id="g4075">
</g>
<g
   id="g4077">
</g>
<g
   id="g4079">
</g>
<g
   id="g4081">
</g>
<g
   id="g4083">
</g>
<g
   id="g4085">
</g>
<g
   id="g4087">
</g>
<g
   id="g4089">
</g>
<g
   id="g4091">
</g>
<g
   transform="matrix(0.17794721,0,0,0.17794721,121.54823,-9.2909614)"
   id="g3840"><path
     style="fill:#ffffff"
     inkscape:connector-curvature="0"
     d="M 516.129,245.161 V 154.839 H 283.871 V 645.161 H 516.129 V 296.774 c 0,-7.126 5.777,-12.903 12.903,-12.903 v -25.807 c -7.126,0 -12.903,-5.777 -12.903,-12.903 z"
     id="path3828" /><rect
     style="fill:#259245"
     x="24.806999"
     y="153.839"
     width="234.258"
     height="492.32199"
     id="rect3830" /><rect
     style="fill:#259245"
     x="25.806999"
     y="154.839"
     width="232.258"
     height="490.32199"
     id="rect3832" /><path
     style="fill:#ed1f34"
     inkscape:connector-curvature="0"
     d="M 540.936,646.161 V 296.774 c 0,-6.563 -5.34,-11.903 -11.903,-11.903 h -1 v -27.807 h 1 c 6.563,0 11.903,-5.34 11.903,-11.903 v -91.322 h 234.258 v 492.322 z"
     id="path3834" /><path
     style="fill:#ed1f34"
     inkscape:connector-curvature="0"
     d="m 541.936,245.161 c 0,7.126 -5.777,12.903 -12.903,12.903 v 25.807 c 7.126,0 12.903,5.777 12.903,12.903 V 645.161 H 774.194 V 154.839 H 541.936 Z"
     id="path3836" /><path
     inkscape:connector-curvature="0"
     d="M 787.097,129.032 H 12.903 C 5.777,129.032 0,134.81 0,141.936 v 516.129 c 0,7.126 5.777,12.903 12.903,12.903 h 774.193 c 7.126,0 12.903,-5.777 12.903,-12.903 V 141.936 C 800,134.81 794.223,129.032 787.097,129.032 Z M 774.193,645.161 H 541.936 V 296.774 c 0,-219.226148 -5.777,-73.01652 -12.903,-73.01652 -7.126,0 -12.00379,-0.41114 -12.01898,6.71484 L 516.13,645.161 H 283.871 V 154.839 h 232.258 l 2.65207,143.36334 c 0.1318,7.12479 3.12493,-40.13834 10.25093,-40.13834 7.126,0 12.903,-5.777 12.903,-12.903 V 154.839 H 774.193 Z M 25.807,154.839 H 258.065 V 645.161 H 25.807 Z"
     id="path3838"
     sodipodi:nodetypes="ssssssscsccsssccccssscccccccc" /></g></svg>