<?xml version="1.0" encoding="UTF-8" standalone="no"?>
<!-- Generator: Adobe Illustrator 18.0.0, SVG Export Plug-In . SVG Version: 6.00 Build 0)  -->

<svg
   xmlns:dc="http://purl.org/dc/elements/1.1/"
   xmlns:cc="http://creativecommons.org/ns#"
   xmlns:rdf="http://www.w3.org/1999/02/22-rdf-syntax-ns#"
   xmlns:svg="http://www.w3.org/2000/svg"
   xmlns="http://www.w3.org/2000/svg"
   xmlns:sodipodi="http://sodipodi.sourceforge.net/DTD/sodipodi-0.dtd"
   xmlns:inkscape="http://www.inkscape.org/namespaces/inkscape"
   version="1.1"
   id="Capa_1"
   x="0px"
   y="0px"
   viewBox="0 0 411.044 411.044"
   style="enable-background:new 0 0 411.044 411.044;"
   xml:space="preserve"
   sodipodi:docname="italian-school-classes.svg"
   inkscape:version="0.92.4 (5da689c313, 2019-01-14)"><metadata
   id="metadata63"><rdf:RDF><cc:Work
       rdf:about=""><dc:format>image/svg+xml</dc:format><dc:type
         rdf:resource="http://purl.org/dc/dcmitype/StillImage" /><dc:title></dc:title></cc:Work></rdf:RDF></metadata><defs
   id="defs61" /><sodipodi:namedview
   pagecolor="#ffffff"
   bordercolor="#666666"
   borderopacity="1"
   objecttolerance="10"
   gridtolerance="10"
   guidetolerance="10"
   inkscape:pageopacity="0"
   inkscape:pageshadow="2"
   inkscape:window-width="2256"
   inkscape:window-height="1376"
   id="namedview59"
   showgrid="false"
   inkscape:zoom="3.2478703"
   inkscape:cx="274.79801"
   inkscape:cy="226.58489"
   inkscape:window-x="0"
   inkscape:window-y="64"
   inkscape:window-maximized="1"
   inkscape:current-layer="Capa_1" />
<g
   transform="matrix(-0.06149646,7.1659842e-5,5.8669139e-5,0.0751132,201.54128,38.077414)"
   id="g3840"><path
     style="fill:#ffffff"
     inkscape:connector-curvature="0"
     d="M 516.129,245.161 V 154.839 H 283.871 V 645.161 H 516.129 V 296.774 c 0,-7.126 5.777,-12.903 12.903,-12.903 v -25.807 c -7.126,0 -12.903,-5.777 -12.903,-12.903 z"
     id="path3828" /><rect
     style="fill:#259245"
     x="24.806999"
     y="153.839"
     width="234.258"
     height="492.32199"
     id="rect3830" /><rect
     style="fill:#259245"
     x="25.806999"
     y="154.839"
     width="232.258"
     height="490.32199"
     id="rect3832" /><path
     style="fill:#ed1f34"
     inkscape:connector-curvature="0"
     d="M 540.936,646.161 V 296.774 c 0,-6.563 -5.34,-11.903 -11.903,-11.903 h -1 v -27.807 h 1 c 6.563,0 11.903,-5.34 11.903,-11.903 v -91.322 h 234.258 v 492.322 z"
     id="path3834" /><path
     style="fill:#ed1f34"
     inkscape:connector-curvature="0"
     d="m 541.936,245.161 c 0,7.126 -5.777,12.903 -12.903,12.903 v 25.807 c 7.126,0 12.903,5.777 12.903,12.903 V 645.161 H 774.194 V 154.839 H 541.936 Z"
     id="path3836" /><path
     inkscape:connector-curvature="0"
     d="M 787.097,129.032 H 12.903 C 5.777,129.032 0,134.81 0,141.936 v 516.129 c 0,7.126 5.777,12.903 12.903,12.903 h 774.193 c 7.126,0 12.903,-5.777 12.903,-12.903 V 141.936 C 800,134.81 794.223,129.032 787.097,129.032 Z M 774.193,645.161 H 541.936 V 296.774 c 0,-7.126 -5.777,-12.903 -12.903,-12.903 -7.126,0 -12.903,5.777 -12.903,12.903 V 645.161 H 283.871 V 154.839 h 232.258 v 90.322 c 0,7.126 5.777,12.903 12.903,12.903 7.126,0 12.903,-5.777 12.903,-12.903 V 154.839 H 774.193 Z M 25.807,154.839 H 258.065 V 645.161 H 25.807 Z"
     id="path3838" /></g><g
   id="g26">
	<g
   id="g24">
		<path
   d="M56.91,286.577h28.809c4.142,0,7.5-3.358,7.5-7.5v-38.41c0-4.143-3.358-7.5-7.5-7.5H56.91c-4.142,0-7.5,3.357-7.5,7.5    v38.41C49.41,283.219,52.768,286.577,56.91,286.577z M64.41,248.166h13.809v23.41H64.41V248.166z"
   id="path2" />
		<path
   d="M56.91,349.053h28.809c4.142,0,7.5-3.357,7.5-7.5v-38.41c0-4.143-3.358-7.5-7.5-7.5H56.91c-4.142,0-7.5,3.357-7.5,7.5    v38.41C49.41,345.696,52.768,349.053,56.91,349.053z M64.41,310.643h13.809v23.41H64.41V310.643z"
   id="path4" />
		<path
   d="M325.325,286.577h28.809c4.142,0,7.5-3.358,7.5-7.5v-38.41c0-4.143-3.358-7.5-7.5-7.5h-28.809c-4.142,0-7.5,3.357-7.5,7.5    v38.41C317.825,283.219,321.183,286.577,325.325,286.577z M332.825,248.166h13.809v23.41h-13.809V248.166z"
   id="path6" />
		<path
   d="M325.325,349.053h28.809c4.142,0,7.5-3.357,7.5-7.5v-38.41c0-4.143-3.358-7.5-7.5-7.5h-28.809c-4.142,0-7.5,3.357-7.5,7.5    v38.41C317.825,345.696,321.183,349.053,325.325,349.053z M332.825,310.643h13.809v23.41h-13.809V310.643z"
   id="path8" />
		<path
   d="M404.502,213.597l-98.085-12.65v-29.305l15.442,8.046c1.107,0.577,2.292,0.85,3.459,0.85c2.707,0,5.32-1.47,6.658-4.036    c1.914-3.674,0.488-8.203-3.186-10.117l-115.769-60.319V43.111c0-2.313-1.066-4.495-2.891-5.916    c-1.824-1.421-4.201-1.921-6.444-1.356l-57.053,14.394c-3.332,0.841-5.666,3.837-5.666,7.272v38.717    c0,2.313,1.067,4.495,2.891,5.917c1.331,1.036,2.956,1.583,4.609,1.583c0.612,0,49.553-12.269,49.553-12.269v14.614    L82.253,166.386c-3.674,1.914-5.1,6.443-3.186,10.117c1.337,2.566,3.951,4.036,6.658,4.036c1.167,0,2.353-0.273,3.459-0.85    l15.442-8.046v29.305l-98.084,12.65c-4.108,0.53-7.009,4.29-6.479,8.397c0.488,3.783,3.714,6.542,7.429,6.542    c0.319,0,15.512-1.938,15.512-1.938v141.334c0,4.143,3.358,7.5,7.5,7.5h350.037c4.142,0,7.5-3.357,7.5-7.5V226.599    c0,0,15.192,1.938,15.512,1.938c3.715,0,6.941-2.759,7.429-6.542C411.511,217.887,408.61,214.127,404.502,213.597z     M155.969,86.593V63.347l42.053-10.609v23.244L155.969,86.593z M37.996,224.665l66.63-8.594v144.361H38.003V224.816    C38.003,224.765,37.997,224.716,37.996,224.665z M119.626,163.827l85.896-44.755l85.896,44.755v196.606h-50.791v-34.449    c0-4.143-3.358-7.5-7.5-7.5h-55.211c-4.142,0-7.5,3.357-7.5,7.5v34.449h-50.79V163.827z M185.416,333.484h12.605v26.949h-12.605    V333.484z M213.021,360.433v-26.949h12.606v26.949H213.021z M373.041,224.816v135.617h-66.623V216.072l66.63,8.594    C373.047,224.716,373.041,224.765,373.041,224.816z"
   id="path10" />
		<path
   d="M141.322,240.993h28.808c4.142,0,7.5-3.357,7.5-7.5v-38.408c0-4.143-3.358-7.5-7.5-7.5h-28.808    c-4.142,0-7.5,3.357-7.5,7.5v38.408C133.822,237.635,137.18,240.993,141.322,240.993z M148.822,202.584h13.808v23.408h-13.808    V202.584z"
   id="path12" />
		<path
   d="M240.912,240.993h28.809c4.142,0,7.5-3.357,7.5-7.5v-38.408c0-4.143-3.358-7.5-7.5-7.5h-28.809    c-4.142,0-7.5,3.357-7.5,7.5v38.408C233.412,237.635,236.77,240.993,240.912,240.993z M248.412,202.584h13.809v23.408h-13.809    V202.584z"
   id="path14" />
		<path
   d="M191.117,240.993h28.808c4.142,0,7.5-3.357,7.5-7.5v-38.408c0-4.143-3.358-7.5-7.5-7.5h-28.808    c-4.142,0-7.5,3.357-7.5,7.5v38.408C183.617,237.635,186.975,240.993,191.117,240.993z M198.617,202.584h13.808v23.408h-13.808    V202.584z"
   id="path16" />
		<path
   d="M177.63,298.281v-38.409c0-4.143-3.358-7.5-7.5-7.5h-28.808c-4.142,0-7.5,3.357-7.5,7.5v38.409c0,4.142,3.358,7.5,7.5,7.5    h28.808C174.272,305.781,177.63,302.423,177.63,298.281z M162.63,290.781h-13.808v-23.409h13.808V290.781z"
   id="path18" />
		<path
   d="M240.912,305.781h28.809c4.142,0,7.5-3.358,7.5-7.5v-38.409c0-4.143-3.358-7.5-7.5-7.5h-28.809    c-4.142,0-7.5,3.357-7.5,7.5v38.409C233.412,302.423,236.77,305.781,240.912,305.781z M248.412,267.371h13.809v23.409h-13.809    V267.371z"
   id="path20" />
		<path
   d="M191.117,305.781h28.808c4.142,0,7.5-3.358,7.5-7.5v-38.409c0-4.143-3.358-7.5-7.5-7.5h-28.808    c-4.142,0-7.5,3.357-7.5,7.5v38.409C183.617,302.423,186.975,305.781,191.117,305.781z M198.617,267.371h13.808v23.409h-13.808    V267.371z"
   id="path22" />
	</g>
</g>
<g
   id="g28">
</g>
<g
   id="g30">
</g>
<g
   id="g32">
</g>
<g
   id="g34">
</g>
<g
   id="g36">
</g>
<g
   id="g38">
</g>
<g
   id="g40">
</g>
<g
   id="g42">
</g>
<g
   id="g44">
</g>
<g
   id="g46">
</g>
<g
   id="g48">
</g>
<g
   id="g50">
</g>
<g
   id="g52">
</g>
<g
   id="g54">
</g>
<g
   id="g56">
</g>
</svg>