<?xml version="1.0" encoding="UTF-8" standalone="no"?>
<svg
   version="1.0"
   width="512.000000pt"
   height="512.000000pt"
   viewBox="0 0 512.000000 512.000000"
   preserveAspectRatio="xMidYMid meet"
   id="svg162"
   sodipodi:docname="stilyzed-christmas-tree-with-star.svg"
   inkscape:version="1.2.2 (b0a8486541, 2022-12-01)"
   xmlns:inkscape="http://www.inkscape.org/namespaces/inkscape"
   xmlns:sodipodi="http://sodipodi.sourceforge.net/DTD/sodipodi-0.dtd"
   xmlns="http://www.w3.org/2000/svg"
   xmlns:svg="http://www.w3.org/2000/svg">
  <defs
     id="defs166" />
  <sodipodi:namedview
     id="namedview164"
     pagecolor="#ffffff"
     bordercolor="#000000"
     borderopacity="0.25"
     inkscape:showpageshadow="2"
     inkscape:pageopacity="0.0"
     inkscape:pagecheckerboard="0"
     inkscape:deskcolor="#d1d1d1"
     inkscape:document-units="pt"
     showgrid="false"
     inkscape:zoom="0.68272033"
     inkscape:cx="311.98719"
     inkscape:cy="334.69049"
     inkscape:window-width="1410"
     inkscape:window-height="860"
     inkscape:window-x="0"
     inkscape:window-y="0"
     inkscape:window-maximized="1"
     inkscape:current-layer="svg162" />
  <metadata
     id="metadata38">
Created by potrace 1.16, written by Peter Selinger 2001-2019
</metadata>
  <g
     transform="translate(0.000000,512.000000) scale(0.100000,-0.100000)"
     fill="#000000"
     stroke="none"
     id="g160">
    <path
       d="m 2423,4294 c 1,-1 33,16 70,37 182.579,139.2541 -24.7428,-177.686 -48,-209 -26,-34 -78,-88 -116,-119 -38,-32 -68,-61 -66,-67 8,-25 73,-47 125,-43 l 54,4 -6,-31 c -22,-110 -140,-246 -286,-329 -47,-27 -74,-45 -60,-41 29,8 143,64 150,73 3,4 32,28 66,53 33,26 72,61 86,80 34,44 74,125 83,168 4,19 24,53 43,77 l 36,42 47,-44 c 27,-25 52,-45 56,-45 4,0 17,-28 27,-61 38,-123 132,-225 270,-294 l 68,-35 -28,-11 c -70,-28 -174,-20 -204,16 -9,11 -7,13 12,9 13,-3 1,5 -27,16 -57,24 -116,76 -112,99 1,9 -4,16 -11,16 -19,0 -47,63 -67,149 -6,28 -7,27 -34,-30 -46,-96 -149,-179 -268,-214 -32,-10 -40,-16 -33,-26 8,-9 -8,-19 -67,-42 -43,-16 -94,-33 -113,-36 -62,-13 -70,-17 -70,-35 0,-31 58,-70 119,-80 l 34,-6 -60,-75 c -69,-87 -197,-210 -271,-260 -28,-19 -52,-43 -52,-52 0,-25 43,-50 118,-68 l 65,-16 -35,-34 c -51,-50 -183,-127 -290,-170 -51,-20 -94,-42 -96,-48 -6,-20 46,-59 105,-77 32,-10 97,-21 146,-24 l 87,-6 -77,-61 c -87,-69 -213,-152 -350,-234 -61,-35 -93,-60 -93,-72 0,-61 143,-94 295,-68 28,4 55,4 60,0 6,-4 39,-19 73,-32 l 64,-26 -73,-62 c -158,-136 -334,-252 -495,-326 -41,-19 -77,-41 -80,-49 -24,-62 166,-159 335,-172 l 75,-6 -39,-34 c -49,-42 -198,-142 -345,-231 -63,-38 -119,-77 -125,-87 -25,-41 114,-101 259,-112 l 80,-6 -55,-25 c -30,-14 -94,-38 -144,-52 -114,-33 -121,-50 -43,-109 117,-88 215,-116 388,-109 111,5 126,8 234,53 17,7 18,5 12,-20 -7,-26 -6,-27 21,-20 45,11 204,90 255,127 82,59 194,165 258,244 33,42 58,79 55,82 -3,3 -22,-9 -43,-26 -181,-154 -332,-245 -462,-281 -120,-34 -207,-27 -324,24 l -39,17 92,49 c 107,56 189,113 298,205 42,36 124,102 182,147 130,100 307,270 369,355 l 47,64 13,-33 c 21,-52 125,-181 204,-253 40,-37 118,-97 173,-134 55,-36 104,-69 108,-73 5,-4 2,-20 -7,-36 -34,-67 -160,-77 -274,-22 -54,26 -139,104 -189,172 -34,47 -38,49 -41,28 -4,-27 38,-151 78,-231 15,-30 59,-102 97,-160 84,-127 139,-227 131,-235 -21,-21 -187,124 -254,220 -20,30 -40,55 -43,55 -4,0 -15,-17 -26,-37 -45,-83 -224,-196 -474,-299 -57,-24 -106,-46 -109,-49 -14,-14 28,-25 99,-25 121,0 215,35 362,136 43,30 81,54 84,54 3,0 4,-54 2,-119 -5,-147 -15,-167 -105,-194 -32,-10 -68,-22 -79,-27 -12,-5 77,-9 215,-9 197,0 232,2 218,13 -30,22 -47,79 -54,177 l -7,94 79,-76 c 44,-41 100,-90 127,-108 55,-38 151,-73 187,-69 22,3 20,6 -28,37 -64,41 -91,75 -127,161 -15,36 -43,96 -62,135 l -36,70 34,-28 c 60,-49 136,-96 189,-117 69,-27 235,-48 259,-33 13,8 31,9 62,1 72,-16 243,-4 324,24 126,44 315,169 315,209 0,23 -25,34 -100,42 -30,4 -75,13 -100,21 l -45,14 62,1 c 69,1 160,18 168,31 3,5 -11,12 -32,15 -112,17 -223,50 -223,65 0,3 15,11 34,18 77,28 162,119 141,151 -3,6 -17,11 -30,11 -36,0 -300,101 -397,152 -66,34 -78,44 -58,46 84,8 155,28 225,62 104,50 144,85 151,130 l 6,36 -125,58 c -68,32 -150,75 -182,96 l -58,39 39,6 c 148,25 262,84 252,130 -2,10 -38,28 -103,50 -55,18 -121,42 -147,54 -27,11 -48,16 -48,11 0,-13 101,-63 185,-90 l 70,-23 -40,-18 c -112,-50 -260,-47 -405,8 l -75,28 70,5 c 39,3 75,9 82,13 6,4 35,-4 64,-18 50,-22 52,-24 24,-26 -27,-1 -27,-2 10,-10 22,-4 51,-8 65,-8 24,1 24,1 -5,11 -16,6 -49,24 -74,40 -51,32 -34,37 38,12 24,-8 45,-13 48,-11 2,3 -19,13 -46,23 -46,16 -49,19 -36,34 24,27 18,37 -47,73 -85,48 -244,187 -214,187 21,0 58,-28 68,-51 21,-47 76,-64 203,-63 92,0 119,4 162,23 55,24 99,63 89,79 -3,5 -43,22 -88,37 -92,30 -194,80 -264,130 l -46,33 59,10 c 76,13 102,24 141,57 52,44 44,65 -44,108 -88,44 -191,110 -253,163 l -43,37 67,23 c 70,24 123,60 158,107 26,34 16,46 -71,80 -90,36 -170,90 -249,168 l -64,64 52,3 c 98,6 96,29 -5,67 l -49,18 49,25 c 72,36 107,72 71,72 -32,0 -177,82 -228,128 -50,46 -106,131 -123,187 -5,18 -1,20 43,21 60,2 121,21 121,38 0,6 -15,20 -32,31 -54,32 -114,92 -158,160 -35.4834,101.541 -187.1732,321.2256 -19,226 38,-22 69,-37 69,-33 -63.7476,692.1227 -288.1685,238.8613 -317,6 z m 257,64 c -1786.66667,508 -893.3333,254 0,0 z m -125,-176 c -16,-68 -34,-107 -72,-162 l -24,-35 31,35 c 40,44 67,96 85,163 7,28 14,45 14,38 1,-8 12,-51 26,-96 17,-56 35,-92 57,-116 18,-19 26,-26 17,-15 -21,27 -59,102 -59,117 0,6 20,-15 44,-47 24,-33 55,-70 69,-83 15,-13 24,-27 22,-31 -3,-4 10,-11 28,-15 28,-6 30,-8 12,-15 -60,-26 -147,8 -200,77 -18,24 -36,50 -39,56 -4,9 -8,8 -12,-2 -15,-33 -78,-91 -111,-102 -34,-11 -110,-15 -120,-6 -2,3 29,38 69,78 40,41 95,109 123,151 27,42 51,76 52,74 1,-1 -4,-30 -12,-64 z m 1,-598 c -12,-162 -53,-283 -126,-374 l -20,-25 15,44 c 19,56 18,64 -2,26 -49,-91 -184,-224 -273,-270 -50,-26 -228,-51 -279,-40 l -32,7 103,98 c 57,54 140,141 183,194 59,72 85,96 103,96 23,0 22,-1 -13,-42 -20,-24 -71,-83 -113,-133 -67,-80 -69,-84 -23,-40 29,28 82,85 119,129 59,71 124,118 140,102 9,-9 -86,-113 -126,-138 -29,-18 -33,-23 -18,-26 16,-3 14,-8 -15,-40 l -34,-35 31,21 c 92,63 273,288 308,384 8,23 25,69 37,101 31,87 43,74 35,-39 z m 165,-184 c 65,-161 190,-311 289,-347 30,-11 92,-23 138,-27 95,-7 106,8 13,17 -134,14 -248,90 -337,224 -32,48 -86,164 -80,170 1,2 26,-3 55,-10 45,-10 58,-19 87,-59 69,-94 197,-203 299,-254 52,-27 95,-53 95,-59 0,-18 -69,-55 -133,-71 -241,-62 -473,89 -541,353 -21,82 -30,196 -21,269 l 7,59 53,-105 c 30,-58 64,-130 76,-160 z m -263,169 c -14,-43 -49,-98 -77,-123 -50,-45 -312,-63 -312,-22 0,5 60,30 133,56 131,45 228,90 250,117 17,21 19,10 6,-28 z m 479,-175 c -3,-3 -12,-4 -19,-1 -8,3 -5,6 6,6 11,1 17,-2 13,-5 z m 40,-10 c -3,-3 -12,-4 -19,-1 -8,3 -5,6 6,6 11,1 17,-2 13,-5 z m -372,-204 c 56,-111 286,-410 316,-410 5,0 18,-18 29,-39 11,-22 30,-47 42,-56 23,-16 23,-16 -7,-9 -64,14 -146,68 -212,138 -49,51 -61,61 -47,36 30,-55 114,-131 173,-158 30,-14 89,-30 132,-36 86,-12 105,-22 64,-32 -90,-23 -239,27 -325,108 -25,23 -49,42 -54,43 -17,0 -86,90 -117,153 -18,35 -42,99 -54,144 l -21,80 -13,-135 c -7,-75 -9,-167 -5,-206 6,-67 6,-70 -29,-123 -64,-96 -144,-177 -183,-184 -55,-10 -59,5 -20,77 19,35 41,89 49,121 8,31 29,74 46,95 29,37 71,128 71,155 0,6 -14,-10 -31,-35 -108,-164 -390,-314 -609,-325 -92,-4 -180,9 -180,27 0,5 28,21 62,35 82,36 214,116 283,172 35,29 61,43 73,40 9,-3 54,10 100,28 45,19 79,29 75,23 -4,-7 -8,-17 -9,-24 -7,-42 -115,-136 -226,-195 -89,-47 -52,-47 46,1 95,46 184,121 224,190 14,25 72,94 127,152 77,80 109,123 138,182 20,41 37,82 38,89 1,7 7,-5 14,-27 7,-23 25,-65 40,-95 z m 319,-269 c 33,-6 76,-11 97,-11 30,0 49,-10 107,-59 77,-65 177,-126 260,-161 49,-21 52,-24 37,-40 -32,-35 -188,-54 -249,-30 -44,16 -29,26 37,24 52,-3 46,-1 -35,11 -105,15 -128,24 -170,63 -40,37 -34,44 18,22 25,-11 64,-23 87,-26 l 42,-5 -57,24 c -117,50 -184,99 -259,188 l -42,50 34,-20 c 19,-11 61,-24 93,-30 z m -284,-184 c 38,-54 102,-100 172,-125 43,-15 58,-30 140,-137 120,-155 203,-238 307,-305 l 83,-55 -38,-8 c -48,-11 -158,-2 -239,19 -209,54 -393,241 -477,484 -20,58 -48,214 -48,265 0,27 3,25 33,-30 18,-33 48,-82 67,-108 z m -344,-44 c -29,-57 -65,-93 -123,-122 -41,-21 -96,-27 -127,-15 -20,8 -21,24 -1,24 24,0 123,54 200,108 39,28 71,51 73,51 1,1 -9,-20 -22,-46 z m 257,-155 c 39,-113 100,-214 194,-324 38,-44 95,-115 127,-159 77,-105 214,-239 299,-294 37,-24 67,-47 67,-52 0,-21 -115,-13 -200,13 -223,69 -373,199 -510,441 -17,31 -36,57 -40,57 -11,0 12,-91 38,-157 26,-64 93,-175 145,-241 21,-27 55,-91 76,-143 48,-122 87,-190 151,-261 64,-72 85,-76 29,-6 -56,72 -122,206 -143,291 -7,29 -6,28 66,-23 40,-29 118,-82 173,-117 55,-36 129,-93 165,-127 127,-119 250,-203 346,-237 41,-15 83,-20 148,-21 90,0 91,0 56,-15 -19,-8 -64,-21 -100,-29 -189,-40 -386,9 -597,147 -45,30 -109,69 -141,88 -177,99 -325,285 -339,426 l -6,59 -12,-41 c -56,-191 -354,-471 -649,-613 -152,-73 -351,-128 -470,-131 -34,-1 -37,-2 -16,-8 23,-7 21,-8 -15,-14 -89,-14 -162,-17 -189,-9 -29,8 -24,11 105,85 145,84 280,177 372,257 39,33 68,50 85,50 15,0 41,7 57,16 30,16 126,54 135,54 3,0 -24,-19 -60,-43 -36,-24 -101,-70 -145,-103 -98,-73 -210,-143 -330,-206 -49,-26 -87,-48 -84,-48 3,0 33,11 67,24 112,44 245,121 345,199 128,101 155,113 87,41 -31,-33 -69,-75 -85,-94 l -30,-34 40,29 c 53,38 125,97 205,168 36,33 122,96 191,142 135,90 284,225 295,269 3,15 -2,61 -14,109 l -19,82 v -56 c 0,-40 -6,-66 -21,-90 -48,-77 -162,-162 -313,-233 -138,-64 -229,-82 -247,-49 -9,14 -11,14 -21,-5 -6,-12 -9,-32 -5,-46 5,-21 1,-25 -43,-40 -160,-52 -351,-40 -469,29 l -46,27 90,48 c 199,107 402,239 517,335 l 60,50 83,-5 83,-5 -52,-84 c -94,-152 -237,-281 -379,-341 -39,-16 -85,-25 -160,-30 l -105,-7 103,-1 c 178,-3 282,44 450,203 51,48 125,128 164,176 39,49 93,105 119,125 46,33 103,105 158,197 13,20 20,37 17,37 -3,0 -34,-25 -68,-56 -125,-112 -220,-149 -363,-142 -86,5 -215,33 -215,47 0,4 26,12 58,19 73,15 296,125 380,186 107,79 235,201 277,264 22,33 41,57 43,54 1,-4 17,-50 35,-104 z m -532,-45 c 16,-5 11,-12 -33,-45 -76,-56 -164,-104 -297,-160 -169,-72 -183,-93 -24,-37 149,53 278,124 354,196 35,33 38,34 105,31 l 69,-3 -68,-67 c -162,-161 -362,-252 -584,-265 -134,-8 -152,-1 -93,36 311,194 370,235 490,337 l 55,47 3,-33 c 2,-22 10,-34 23,-37 z m 1194,22 c 126,-80 169,-103 250,-135 44,-17 89,-35 100,-39 39,-16 -23,-35 -110,-34 -84,2 -171,24 -267,68 -44,21 -48,25 -26,25 15,0 62,-11 105,-25 43,-14 85,-25 93,-25 8,0 -21,13 -66,28 -45,15 -99,39 -120,53 -21,14 -75,47 -119,72 l -80,47 h 49 c 35,0 56,-6 70,-19 26,-23 76,-55 76,-48 0,2 -19,17 -42,33 -42,27 -43,28 -18,35 14,4 27,7 30,8 3,1 37,-19 75,-44 z m -259,-464 c 5,-6 52,-24 104,-41 104,-35 147,-57 260,-136 92,-63 218,-131 325,-175 44,-18 84,-36 89,-40 4,-4 -3,-15 -18,-24 -24,-16 -29,-16 -108,11 -169,55 -308,130 -407,218 -64,57 -79,60 -26,5 103,-106 270,-207 418,-253 l 72,-23 -50,-22 c -118,-53 -244,-65 -359,-35 -64,17 -187,71 -221,97 -19,15 -17,15 20,7 22,-5 71,-10 108,-10 38,0 80,-6 95,-14 29,-15 153,-37 199,-35 15,1 -15,7 -67,15 -52,8 -106,20 -120,26 l -25,12 28,4 c 20,2 26,7 19,15 -6,7 -12,25 -14,42 -2,24 -15,37 -63,69 -97,63 -315,296 -278,296 5,0 13,-4 19,-9 z m 701,-797 c 167,-44 166,-44 43,-41 -107,3 -121,6 -185,36 -60,27 -225,128 -225,136 0,2 61,-21 135,-51 74,-29 178,-65 232,-80 z m -496,-220 c 74,-76 200,-169 245,-180 40,-10 27,-21 -42,-34 -91,-17 -213,-8 -297,23 -75,28 -74,11 1,-21 99,-43 201,-48 307,-15 80,25 83,32 24,65 -61,33 -174,117 -239,177 l -45,42 35,-15 c 118,-48 189,-81 230,-107 26,-16 91,-50 145,-75 l 97,-46 -48,-29 c -87,-51 -261,-99 -358,-99 -67,0 -177,28 -245,61 -69,34 -188,140 -246,219 -19,26 -35,50 -35,52 0,3 29,-10 64,-28 78,-39 248,-73 270,-54 8,6 12,18 9,26 -9,24 8,16 52,-25 43,-39 117,-82 165,-95 14,-4 -9,11 -50,34 -66,35 -160,109 -160,125 0,5 43,75 46,75 1,0 35,-34 75,-76 z m -1386,0 C 1688,951 1544,867 1460,838 l -55,-19 51,5 c 45,4 55,2 74,-19 14,-15 18,-25 11,-30 -14,-8 -186,-10 -231,-2 -29,5 -27,4 10,-9 31,-10 78,-15 155,-13 61,1 116,1 124,0 21,-2 6,-12 -31,-22 -23,-6 -12,-7 37,-3 94,6 118,-10 39,-26 -78,-16 -222,-7 -297,19 -62,21 -137,61 -137,71 0,3 30,16 68,28 37,12 168,71 292,131 124,59 227,106 230,104 2,-2 -9,-15 -25,-29 z m 1988,-35 c 31,-7 57,-17 57,-22 0,-14 -129,-2 -163,14 -26,12 -27,14 -10,21 19,8 26,7 116,-13 z m -301,-10 c 29,-6 112,-30 183,-55 79,-26 159,-46 203,-50 l 73,-7 -48,-34 c -68,-49 -126,-77 -221,-107 -88,-28 -153,-36 -99,-13 16,7 27,16 25,21 -1,4 32,29 75,55 106,64 111,71 58,71 -48,0 -153,39 -251,94 -36,19 -62,36 -58,36 4,0 31,-5 60,-11 z M 2618,717 c 6,-7 12,-71 14,-145 3,-120 1,-132 -14,-132 -15,0 -18,10 -18,68 0,38 -3,103 -6,145 -7,76 0,94 24,64 z"
       id="path40"
       sodipodi:nodetypes="cccccccccccccccccsccccccccsccccccsccccsccccccccccscccccccccccccccccccccccsccsccccccccccccccscscsccsscscccscccccccccccccccsccccccsccsccccccccccccsccccccccccccccccccsccccccccsccccccccccccscccscccccccsccccccccscccccccccccccsccccccccccsccccscccccccccccccccccsccccccccsccccccccccccsccccccscccccccccccccsccscccccccccccscccscccccccccccccccccccccccssccccscccccccsccscccccccccccccccccccccccccscssccscccccccscccscccccccccccccccsccccccsccsccsccccccccccccccsccccccsssssccscsccsccccccccccccccccsccsccccccsccccsccccccccccccccccsccsccscccsscccccccccccccccscccccscccsccccccccscssccsscc" />
    <path
       d="M2560 4105 c0 -17 72 -115 96 -132 53 -36 53 -34 -1 21 -29 30 -59 68 -66 85 -12 27 -29 42 -29 26z"
       id="path42" />
    <path
       d="M2388 3963 c6 -2 18 -2 25 0 6 3 1 5 -13 5 -14 0 -19 -2 -12 -5z"
       id="path44" />
    <path
       d="M1913 2983 c9 -2 23 -2 30 0 6 3 -1 5 -18 5 -16 0 -22 -2 -12 -5z"
       id="path46" />
    <path
       d="M1998 2973 c6 -2 18 -2 25 0 6 3 1 5 -13 5 -14 0 -19 -2 -12 -5z"
       id="path48" />
    <path
       d="M2592 3550 c0 -14 2 -19 5 -12 2 6 2 18 0 25 -3 6 -5 1 -5 -13z"
       id="path50" />
    <path
       d="M2602 3475 c0 -16 2 -22 5 -12 2 9 2 23 0 30 -3 6 -5 -1 -5 -18z"
       id="path52" />
    <path
       d="M2611 3420 c-1 -25 37 -149 61 -198 24 -50 99 -137 133 -154 11 -5 -3 10 -31 35 -60 54 -104 132 -138 247 -14 47 -25 78 -25 70z"
       id="path54" />
    <path
       d="M2787 3172 c15 -30 45 -71 66 -93 38 -38 36 -50 -5 -28 -12 7 -18 7 -14 1 6 -11 91 -42 113 -42 7 0 13 4 13 10 0 5 -7 7 -15 3 -9 -3 -15 -1 -13 5 2 6 -12 21 -31 34 -31 20 -92 89 -129 144 -7 10 0 -5 15 -34z"
       id="path56" />
    <path
       d="M3035 3150 c10 -11 20 -20 23 -20 3 0 -3 9 -13 20 -10 11 -20 20 -23 20 -3 0 3 -9 13 -20z"
       id="path58" />
    <path
       d="M3070 3124 c0 -7 71 -36 76 -31 2 2 -14 11 -36 20 -22 8 -40 13 -40 11z"
       id="path60" />
    <path
       d="M2970 3009 c0 -5 9 -9 20 -9 11 0 20 2 20 4 0 2 -9 6 -20 9 -11 3 -20 1 -20 -4z"
       id="path62" />
    <path
       d="M2178 3433 c6 -2 18 -2 25 0 6 3 1 5 -13 5 -14 0 -19 -2 -12 -5z"
       id="path64" />
    <path
       d="M2113 3423 c9 -2 23 -2 30 0 6 3 -1 5 -18 5 -16 0 -22 -2 -12 -5z"
       id="path66" />
    <path
       d="M2620 2935 c0 -5 5 -17 10 -25 5 -8 10 -10 10 -5 0 6 -5 17 -10 25 -5 8 -10 11 -10 5z"
       id="path68" />
    <path
       d="M2140 2854 c-57 -45 -62 -51 -25 -30 40 24 92 66 80 65 -5 0 -30 -16 -55 -35z"
       id="path70" />
    <path
       d="M2666 2840 c15 -28 34 -56 43 -63 12 -9 11 -5 -3 17 -10 16 -27 44 -38 63 -31 52 -32 39 -2 -17z"
       id="path72" />
    <path
       d="M2015 2775 c-33 -19 -56 -35 -51 -35 10 0 116 60 116 66 0 6 -1 6 -65 -31z"
       id="path74" />
    <path
       d="M1895 2690 c-22 -10 -74 -28 -115 -39 -82 -22 -68 -27 25 -10 63 12 135 43 135 59 0 6 -1 10 -2 9 -2 0 -21 -9 -43 -19z"
       id="path76" />
    <path
       d="M3120 2780 c56 -53 86 -72 130 -84 14 -4 3 5 -25 19 -27 15 -75 47 -105 72 l-55 45 55 -52z"
       id="path78" />
    <path
       d="M3298 2643 c6 -2 18 -2 25 0 6 3 1 5 -13 5 -14 0 -19 -2 -12 -5z"
       id="path80" />
    <path
       d="M2680 2612 c0 -28 47 -133 87 -195 46 -72 129 -167 146 -167 5 0 -10 21 -35 48 -61 66 -101 126 -153 233 -25 51 -45 87 -45 81z"
       id="path82" />
    <path
       d="M2807 2294 c18 -22 60 -59 95 -83 35 -23 50 -32 33 -19 -16 13 -59 50 -94 83 -56 52 -61 54 -34 19z"
       id="path84" />
    <path
       d="M3050 2256 c30 -34 99 -86 114 -86 6 0 -1 8 -14 17 -14 9 -47 35 -75 57 -37 30 -43 33 -25 12z"
       id="path86" />
    <path
       d="M2543 2395 c0 -22 2 -30 4 -17 2 12 2 30 0 40 -3 9 -5 -1 -4 -23z"
       id="path88" />
    <path
       d="M2386 2339 c-15 -28 -50 -78 -78 -112 l-49 -62 54 57 c49 52 114 154 105 163 -2 2 -16 -19 -32 -46z"
       id="path90" />
    <path
       d="M2575 2285 c16 -121 70 -225 147 -286 l43 -34 -42 50 c-48 57 -91 140 -128 246 -26 73 -26 73 -20 24z"
       id="path92" />
    <path
       d="M2038 2123 c7 -3 16 -2 19 1 4 3 -2 6 -13 5 -11 0 -14 -3 -6 -6z"
       id="path94" />
    <path
       d="M2270 1959 c-39 -54 -116 -128 -205 -197 -26 -20 -23 -20 24 5 72 37 172 135 205 201 14 28 25 52 23 52 -1 0 -22 -27 -47 -61z"
       id="path96" />
    <path
       d="M1926 1842 c-66 -72 -73 -81 -27 -37 55 53 129 136 119 135 -1 -1 -43 -45 -92 -98z"
       id="path98" />
    <path
       d="M2301 1879 c-48 -55 -121 -108 -233 -169 -79 -43 -83 -48 -19 -25 104 36 250 146 286 214 8 17 14 31 13 31 -2 -1 -23 -23 -47 -51z"
       id="path100" />
    <path
       d="M2780 1876 c14 -15 39 -37 55 -49 36 -24 26 -14 -35 39 -30 25 -37 29 -20 10z"
       id="path102" />
    <path
       d="M1780 1793 c-36 -25 -152 -87 -257 -139 -106 -52 -193 -96 -193 -99 0 -11 76 8 149 36 106 42 251 130 318 194 32 30 56 54 53 53 -3 0 -34 -21 -70 -45z"
       id="path104" />
    <path
       d="M1540 1690 c-9 -6 -10 -10 -3 -10 6 0 15 5 18 10 8 12 4 12 -15 0z"
       id="path106" />
    <path
       d="M2285 1528 c-22 -22 -78 -65 -125 -96 -110 -72 -115 -76 -52 -50 63 27 176 110 210 156 33 43 16 38 -33 -10z"
       id="path108" />
    <path
       d="M1705 1349 c-107 -82 -116 -92 -25 -32 63 43 123 94 109 93 -2 0 -40 -28 -84 -61z"
       id="path110" />
    <path
       d="M3029 1372 c38 -49 97 -98 161 -135 58 -34 178 -79 199 -75 8 2 -16 16 -55 31 -89 34 -214 112 -285 174 l-54 48 34 -43z"
       id="path112" />
    <path
       d="M1810 1190 c-8 -5 -10 -10 -5 -10 6 0 17 5 25 10 8 5 11 10 5 10 -5 0 -17 -5 -25 -10z"
       id="path114" />
    <path
       d="M1905 2283 c-16 -9 -73 -34 -125 -54 -52 -21 -90 -38 -85 -38 26 -2 245 92 245 104 0 7 -1 6 -35 -12z"
       id="path116" />
    <path
       d="M1658 2183 c7 -3 16 -2 19 1 4 3 -2 6 -13 5 -11 0 -14 -3 -6 -6z"
       id="path118" />
    <path
       d="M1608 2173 c6 -2 18 -2 25 0 6 3 1 5 -13 5 -14 0 -19 -2 -12 -5z"
       id="path120" />
    <path
       d="M1553 2163 c9 -2 23 -2 30 0 6 3 -1 5 -18 5 -16 0 -22 -2 -12 -5z"
       id="path122" />
    <path
       d="M1468 2153 c12 -2 32 -2 45 0 12 2 2 4 -23 4 -25 0 -35 -2 -22 -4z"
       id="path124" />
    <path
       d="M3327 2399 c7 -7 15 -10 18 -7 3 3 -2 9 -12 12 -14 6 -15 5 -6 -5z"
       id="path126" />
    <path
       d="M3415 2361 c22 -11 54 -22 70 -26 18 -3 9 3 -20 15 -68 27 -100 34 -50 11z"
       id="path128" />
    <path
       d="M3388 2333 c7 -3 16 -2 19 1 4 3 -2 6 -13 5 -11 0 -14 -3 -6 -6z"
       id="path130" />
    <path
       d="M3725 785 c-25 -12 -26 -14 -5 -9 28 7 60 23 45 23 -5 0 -23 -6 -40 -14z"
       id="path132" />
    <path
       d="M2520 3849 c-8 -19 -19 -37 -24 -41 -7 -5 -7 -8 1 -8 15 0 46 56 41 72 -2 6 -10 -4 -18 -23z"
       id="path134" />
    <path
       d="M2476 3775 c-11 -8 -17 -17 -14 -20 2 -3 13 4 23 15 21 23 18 25 -9 5z"
       id="path136" />
    <path
       d="M2670 3766 c0 -11 30 -66 36 -66 2 0 -3 15 -12 33 -19 36 -24 44 -24 33z"
       id="path138" />
    <path
       d="M2710 3686 c0 -2 8 -10 18 -17 15 -13 16 -12 3 4 -13 16 -21 21 -21 13z"
       id="path140" />
    <path
       d="M2680 3636 c0 -3 9 -10 20 -16 11 -6 20 -8 20 -6 0 3 -9 10 -20 16 -11 6 -20 8 -20 6z"
       id="path142" />
    <path
       d="M2838 3513 c7 -3 16 -2 19 1 4 3 -2 6 -13 5 -11 0 -14 -3 -6 -6z"
       id="path144" />
    <path
       d="M3310 2000 c8 -5 22 -9 30 -9 10 0 8 3 -5 9 -27 12 -43 12 -25 0z"
       id="path146" />
    <path
       d="M2574 1407 c2 -79 5 -92 32 -130 58 -82 177 -148 265 -146 30 0 28 2 -20 15 -168 45 -253 134 -272 287 -7 58 -7 56 -5 -26z"
       id="path148" />
    <path
       d="M2326 1212 c-24 -64 -40 -88 -95 -142 -71 -70 -209 -150 -339 -195 -37 -13 -61 -24 -53 -24 26 -2 196 60 264 96 129 68 213 167 247 292 18 68 8 56 -24 -27z"
       id="path150" />
    <path
       d="M2810 1225 c0 -7 81 -47 86 -43 2 3 -17 14 -41 26 -25 12 -45 20 -45 17z"
       id="path152" />
    <path
       d="M2090 1017 c-25 -23 -56 -50 -70 -60 -14 -10 -6 -8 19 5 24 13 57 40 73 60 16 21 28 38 26 38 -1 0 -23 -20 -48 -43z"
       id="path154" />
    <path
       d="M1798 843 c7 -3 16 -2 19 1 4 3 -2 6 -13 5 -11 0 -14 -3 -6 -6z"
       id="path156" />
    <path
       d="M2075 688 l-50 -53 53 50 c48 46 57 55 49 55 -1 0 -25 -24 -52 -52z"
       id="path158" />
  </g>
  <g
     id="g613"
     transform="translate(-12.567429,-63.696287)">
    <path
       style="fill:#ffffff;stroke-width:0.0932616"
       inkscape:connector-curvature="0"
       d="m 277.28456,103.34239 v -8.991943 h -20.29161 v 48.813613 h 20.29161 v -34.68338 c 0,-0.70943 0.50472,-1.28455 1.1273,-1.28455 v -2.5692 c -0.62258,0 -1.1273,-0.57512 -1.1273,-1.28454 z"
       id="path3828" />
    <rect
       style="fill:#259245;stroke-width:0.0932616"
       x="234.35936"
       y="94.250893"
       width="20.466351"
       height="49.012718"
       id="rect3830" />
    <rect
       style="fill:#259245;stroke-width:0.0932616"
       x="234.44673"
       y="94.350441"
       width="20.291616"
       height="48.81361"
       id="rect3832" />
    <path
       style="fill:#ed1f34;stroke-width:0.0932616"
       inkscape:connector-curvature="0"
       d="m 279.45187,143.26362 v -34.78294 c 0,-0.65338 -0.46654,-1.185 -1.03993,-1.185 h -0.0874 v -2.7683 h 0.0874 c 0.57339,0 1.03993,-0.53162 1.03993,-1.18499 v -9.091493 h 20.46635 v 49.012723 z"
       id="path3834" />
    <path
       style="fill:#ed1f34;stroke-width:0.0932616"
       inkscape:connector-curvature="0"
       d="m 279.53924,103.34239 c 0,0.70942 -0.50472,1.28454 -1.1273,1.28454 v 2.5692 c 0.62258,0 1.1273,0.57512 1.1273,1.28455 v 34.68338 h 20.29161 V 94.350447 h -20.29161 z"
       id="path3836" />
    <path
       inkscape:connector-curvature="0"
       d="m 300.95815,91.781257 h -67.63879 c -0.62257,0 -1.12729,0.57522 -1.12729,1.28465 v 51.382803 c 0,0.70942 0.50472,1.28455 1.12729,1.28455 h 67.6387 c 0.62257,0 1.12729,-0.57513 1.12729,-1.28455 V 93.065907 c 9e-5,-0.70943 -0.50463,-1.28465 -1.1272,-1.28465 z m -1.12738,51.382803 h -20.29153 v -34.68338 c 0,-0.70943 -0.50472,-1.28455 -1.1273,-1.28455 -0.62257,0 -1.12729,0.57512 -1.12729,1.28455 v 34.68338 h -20.2917 V 94.350447 h 20.29161 l -0.0331,14.096363 c -0.002,0.70942 0.60415,-0.14071 1.22673,-0.14071 0.62257,0 1.061,0.81699 1.061,0.10757 V 94.350447 h 20.29162 z M 234.44674,94.350447 h 20.29162 v 48.813613 h -20.29162 z"
       id="path3838"
       sodipodi:nodetypes="ssssssscsccsssccccsssccccccsc"
       style="stroke-width:0.0932616" />
    <path
       d="M 299.16799,86.132193 H 235.5295 c -7.31606,0 -13.26819,5.954774 -13.26819,13.274014 v 34.806443 c 0,7.31872 5.95213,13.27295 13.26819,13.27295 h 6.57735 c 23.82528,-0.0828 0.36076,-0.24283 23.26758,5.4e-4 h 33.79356 c 7.31605,0 13.2687,-5.95477 13.2687,-13.27296 V 99.406207 c -5.2e-4,-7.31924 -5.95265,-13.274014 -13.2687,-13.274014 z m 2.47969,48.080457 c 0,1.34644 -1.13591,2.48447 -2.47969,2.48447 -18.3774,0.31413 -44.54968,-0.29609 -51.66637,0 h -11.97159 c -1.34379,0 -2.4797,-1.13803 -2.4797,-2.48447 V 99.406207 c 0,-1.3475 1.13591,-2.48606 2.4797,-2.48606 h 63.63848 c 1.34379,0 2.47971,1.13803 2.47971,2.48606 v 34.806443 z"
       id="path4057"
       inkscape:connector-curvature="0"
       style="stroke-width:0.530303"
       sodipodi:nodetypes="sssssccsscscccsssssscc" />
  </g>
  <path
     sodipodi:type="star"
     style="opacity:0.96;fill:none;stroke-width:0.75"
     id="path721"
     inkscape:flatsided="false"
     sodipodi:sides="5"
     sodipodi:cx="122.30341"
     sodipodi:cy="109.21097"
     sodipodi:r1="64.374596"
     sodipodi:r2="32.187302"
     sodipodi:arg1="0.75121821"
     sodipodi:arg2="1.3795367"
     inkscape:rounded="0"
     inkscape:randomized="0"
     d="M 169.3521,153.14854 128.42208,140.81135 95.055147,167.53438 94.140434,124.79522 58.414374,101.31925 98.779067,87.242183 110.06608,46.010206 135.92755,80.049257 178.62937,78.042465 154.24794,113.15682 Z"
     inkscape:transform-center-x="3.7815435"
     inkscape:transform-center-y="-2.4386741" />
</svg>
